<svg width="60" height="60" viewBox="0 0 60 60" fill="none" xmlns="http://www.w3.org/2000/svg">
<path d="M17.4561 51.9502C17.4268 51.9372 17.3551 51.916 17.2412 51.8867C17.1305 51.8542 16.9792 51.8232 16.7871 51.7939C16.5983 51.7646 16.3932 51.75 16.1719 51.75C15.498 51.75 14.9788 51.9958 14.6143 52.4873C14.2529 52.9756 14.0723 53.6803 14.0723 54.6016C14.0723 55.4674 14.2676 56.1169 14.6582 56.5498C15.0488 56.9827 15.5713 57.1992 16.2256 57.1992C16.5381 57.1992 16.8424 57.139 17.1387 57.0186C17.4349 56.8981 17.6888 56.7679 17.9004 56.6279C18.1152 56.488 18.2227 56.4115 18.2227 56.3984L18.623 57.0479C18.623 57.0674 18.5026 57.1699 18.2617 57.3555C18.0241 57.5378 17.7197 57.707 17.3486 57.8633C16.9775 58.0195 16.569 58.0977 16.123 58.0977C15.1107 58.0977 14.3245 57.8014 13.7646 57.209C13.2048 56.6165 12.9248 55.7637 12.9248 54.6504C12.9248 53.8919 13.0615 53.2311 13.335 52.668C13.6084 52.1016 13.9958 51.6654 14.4971 51.3594C15.0016 51.0534 15.5941 50.9004 16.2744 50.9004C16.5999 50.9004 16.9287 50.9378 17.2607 51.0127C17.596 51.0843 17.8906 51.1657 18.1445 51.2568C18.3984 51.3447 18.5254 51.3919 18.5254 51.3984L18.4766 53.0977H17.7246L17.4561 51.9502ZM20.2246 51.7988L19.375 51.5986V51.0518L21.2744 50.998H22.373C23.0794 50.998 23.6312 51.1592 24.0283 51.4814C24.4255 51.8005 24.624 52.2399 24.624 52.7998C24.624 53.7796 24.1911 54.429 23.3252 54.748C23.4847 54.888 23.6849 55.1891 23.9258 55.6514L24.7168 57.2383L25.4248 57.3994V58H23.9258L23.0762 56.1494C22.9167 55.8044 22.7767 55.5505 22.6562 55.3877C22.5358 55.2217 22.4072 55.1077 22.2705 55.0459C22.1338 54.9808 21.9515 54.9482 21.7236 54.9482H21.2744V57.1992L22.124 57.3994V58H19.375V57.3994L20.2246 57.1992V51.7988ZM22.0264 54.2012C22.5114 54.2012 22.8906 54.0921 23.1641 53.874C23.4375 53.6527 23.5742 53.3451 23.5742 52.9512C23.5742 52.6191 23.457 52.3441 23.2227 52.126C22.9915 51.9079 22.6921 51.7988 22.3242 51.7988H21.2744V54.2012H22.0264ZM28.6279 51.0518L29.6289 50.998L31.8506 57.209L32.6807 57.3994V58H29.7803V57.3994L30.708 57.209L30.3271 56.1006H27.7295L27.3389 57.209L28.2764 57.3994V58H25.5273V57.3994L26.3477 57.209L28.6279 51.0518ZM29.0479 52.292L27.998 55.2998H30.0586L29.0479 52.292ZM32.2754 51.0518L35.0781 50.998V51.5986L34.209 51.7988L35.2783 56.3301L36.9287 51.0518L37.876 50.998L39.4971 56.4424L40.7373 51.7988L39.8242 51.5986V51.0518L42.5244 50.998V51.5986L41.7383 51.7988L39.9756 58H38.877L37.6758 53.4004L37.3877 52.3213L37.0752 53.4492L35.7275 58H34.7266L33.0566 51.7988L32.2754 51.5986V51.0518ZM46.875 56.0518H47.5732V58H42.7246V57.3994L43.5742 57.1992V51.7988L42.7246 51.5986V51.0518L45.4736 50.998V51.5986L44.624 51.7988V57.1992H46.6748L46.875 56.0518Z" fill="white"/>
<path d="M47.1606 28.6439C47.1606 37.954 39.6247 45.5 30.3303 45.5C21.0359 45.5 13.5 37.954 13.5 28.6439C13.5 22.7093 15.4136 15.8843 18.5084 10.5518C21.6201 5.18991 25.8226 1.5 30.3303 1.5C34.8393 1.5 39.0416 5.16433 42.1525 10.5109C45.2467 15.829 47.1606 22.6538 47.1606 28.6439Z" fill="#7DD6FF" stroke="black"/>
<path d="M15.4999 36.5001C15.5332 36.4624 15.5665 36.4249 15.5997 36.3874L15.6037 36.3828C14.1272 34.3635 14 32.5002 13.7 30.0002C13.8674 29.5254 24.807 12.532 46.5 23.0002C47.0889 24.9463 46.9195 26.0164 47 28.0002C36.7472 21.2529 27.6929 22.7522 15.5997 36.3874L15.4999 36.5001Z" fill="#9D6531"/>
<path d="M13.7 30.0002C13.8674 29.5254 24.807 12.532 46.5 23.0002C47.0889 24.9463 46.9195 26.0164 47 28.0002C36.7191 21.2343 27.6431 22.7605 15.4999 36.5001L15.6037 36.3828C14.1272 34.3635 14 32.5002 13.7 30.0002Z" stroke="black" stroke-linejoin="round"/>
<path d="M21.2404 35.1316C20.2234 34.1169 20.0135 33.4506 20.5105 32.0548C22.0558 31.8966 22.6764 32.1642 23.4103 33.3161C24.2417 34.5493 24.283 35.2199 24.1403 36.3929C22.9926 36.2802 22.3557 36.0631 21.2404 35.1316Z" fill="#41A61A" stroke="black" stroke-linejoin="round"/>
<path d="M18.2122 19.834C17.0934 18.303 20.8665 10.4958 27 9L27.4425 11.8729C29.1672 10.3527 30.1506 9.92099 31.9176 9.4C33.5554 8.98387 34.3575 9.19426 35.9999 9.5C37.9457 10.0209 38.8271 10.3864 40.029 11.8729C41.5963 13.9469 41.7882 15.2794 41.9869 17.6906C42.0588 20.0854 41.8397 21.4229 41.1478 23.8145C40.465 25.3751 40.29 26.1765 39.5 27.5C38.7454 28.9506 38.0612 29.8972 37 31C35.6013 32.4102 34.9623 32.8256 33 33C32.1877 32.9881 31.5132 32.879 30.7989 32.3879C29.9114 31.5958 29.6485 31.0361 29.4004 29.9383C29.3441 29.0473 29.4616 28.5595 29.9598 27.795C30.6863 26.9399 31.3582 26.57 31.9176 26.57C32.477 26.57 33.5466 27.3533 33.5959 28.101C33.5969 28.607 33.1789 29.168 32 29.5C32.6101 30.5008 32.9462 30.5821 33.8756 30.5505C35.3248 30.1112 35.6026 29.0385 36.6726 27.1824C37.2981 25.9172 37.2972 24.9588 36.9523 23.8142C35.8796 25.0007 35.6064 25.0735 34.4999 24.733C33.8712 24.5711 33.1175 24.8823 32.7567 23.8142C33.6806 23.8107 34.8125 23.2315 35 22H32C31.7938 22.924 32.0162 23.0608 30.7988 24.1204C29.8346 24.7919 29.1344 24.8598 28.0018 24.733C26.8963 24.9336 29.6351 21.5179 29.6 21.0587C28.8039 19.504 28.4421 19.1854 27.7221 19.7517C27.0022 20.318 26.3416 20.8793 24.9251 21.3647C23.7517 21.6895 23.0801 21.7794 21.8484 21.6709C20.4435 21.5407 19.3311 21.3649 18.2122 19.834Z" fill="#1E8B68"/>
<path d="M27 9L27.4942 8.92389C27.4728 8.78541 27.3944 8.66224 27.2779 8.58436C27.1614 8.50648 27.0176 8.48104 26.8815 8.51424L27 9ZM21.8484 21.6709L21.8023 22.1688L21.8045 22.169L21.8484 21.6709ZM28.0018 24.733L28.0574 24.2362L27.9847 24.228L27.9126 24.2411L28.0018 24.733ZM30.7988 24.1204L31.0846 24.5308C31.0993 24.5205 31.1135 24.5094 31.1271 24.4976L30.7988 24.1204ZM32 22L31.5229 21.8503C31.5187 21.8637 31.5151 21.8773 31.512 21.8911L32 22ZM32.7567 23.8142L32.7548 23.3143C32.5941 23.3149 32.4435 23.3927 32.35 23.5235C32.2565 23.6543 32.2316 23.822 32.283 23.9743L32.7567 23.8142ZM34.4999 24.733L34.647 24.2552C34.6396 24.2529 34.6321 24.2508 34.6246 24.2489L34.4999 24.733ZM36.6726 27.1824L37.1057 27.4321C37.1111 27.4229 37.1161 27.4135 37.1208 27.404L36.6726 27.1824ZM33.8756 30.5505L33.8925 31.0502C33.936 31.0487 33.979 31.0416 34.0206 31.029L33.8756 30.5505ZM32 29.5L31.8645 29.0187C31.7139 29.0611 31.5918 29.1715 31.5346 29.3171C31.4774 29.4627 31.4916 29.6267 31.5731 29.7603L32 29.5ZM33.5959 28.101L34.0959 28.0999L34.0958 28.084L34.0948 28.0681L33.5959 28.101ZM29.9598 27.795L29.5787 27.4712L29.5582 27.4954L29.5408 27.522L29.9598 27.795ZM29.4004 29.9383L28.9014 29.9699L28.9039 30.0097L28.9127 30.0486L29.4004 29.9383ZM30.7989 32.3879L30.4659 32.7609L30.4895 32.782L30.5156 32.7999L30.7989 32.3879ZM33 33L32.9927 33.4999C33.0099 33.5002 33.0271 33.4996 33.0443 33.498L33 33ZM37 31L37.355 31.3521L37.3603 31.3467L37 31ZM39.5 27.5L39.0707 27.2437L39.0632 27.2563L39.0564 27.2693L39.5 27.5ZM41.1478 23.8145L41.6059 24.0149L41.619 23.9849L41.6281 23.9534L41.1478 23.8145ZM41.9869 17.6906L42.4867 17.6756L42.4863 17.6626L42.4852 17.6495L41.9869 17.6906ZM40.029 11.8729L40.4279 11.5715L40.423 11.5649L40.4178 11.5586L40.029 11.8729ZM35.9999 9.5L36.1292 9.01701L36.1105 9.01199L36.0914 9.00844L35.9999 9.5ZM31.9176 9.4L31.7945 8.9154C31.7884 8.91695 31.7823 8.91862 31.7762 8.92041L31.9176 9.4ZM27.4425 11.8729L26.9483 11.949C26.9761 12.1297 27.1002 12.2807 27.2721 12.343C27.4439 12.4053 27.636 12.3689 27.7731 12.248L27.4425 11.8729ZM32.397 17.5481C32.3184 17.2834 32.0401 17.1325 31.7753 17.2111C31.5106 17.2897 31.3597 17.568 31.4383 17.8327L32.397 17.5481ZM38.0404 18.8018C38.316 18.8188 38.5532 18.6091 38.5701 18.3334C38.5871 18.0578 38.3774 17.8206 38.1017 17.8037L38.0404 18.8018ZM39.8821 21.6473C40.0381 21.4195 39.98 21.1083 39.7522 20.9522C39.5244 20.7961 39.2132 20.8543 39.0571 21.0821L39.8821 21.6473ZM25.7695 17.1826C25.9964 17.0252 26.0527 16.7137 25.8953 16.4868C25.7379 16.2599 25.4264 16.2036 25.1995 16.361L25.7695 17.1826ZM24.9251 21.3647L25.0585 21.8466L25.073 21.8426L25.0872 21.8377L24.9251 21.3647ZM29.5105 17.6835C29.3376 17.4682 29.0228 17.4338 28.8075 17.6067C28.5922 17.7796 28.5579 18.0944 28.7308 18.3097L29.5105 17.6835ZM26.8815 8.51424C23.6497 9.30241 21.0811 11.7361 19.4718 14.1244C18.6642 15.323 18.0813 16.5343 17.772 17.5615C17.6177 18.0741 17.5266 18.5571 17.5172 18.9791C17.508 19.389 17.5746 19.8088 17.8086 20.129L18.6159 19.5389C18.5702 19.4763 18.5099 19.3173 18.5169 19.0014C18.5237 18.6975 18.5917 18.3077 18.7296 17.8498C19.0048 16.9357 19.5387 15.8147 20.3011 14.6832C21.8321 12.4112 24.2168 10.1934 27.1185 9.48576L26.8815 8.51424ZM17.8086 20.129C18.4132 20.9563 19.0394 21.4462 19.7279 21.7381C20.4008 22.0233 21.1011 22.1038 21.8023 22.1688L21.8945 21.173C21.1908 21.1078 20.6325 21.0353 20.1182 20.8174C19.6196 20.606 19.1302 20.2426 18.6159 19.5389L17.8086 20.129ZM27.9462 25.2299C28.5288 25.2951 29.0469 25.3165 29.559 25.2169C30.0794 25.1156 30.5593 24.8965 31.0846 24.5308L30.5131 23.7101C30.0741 24.0158 29.7218 24.1664 29.368 24.2353C29.0057 24.3058 28.6074 24.2977 28.0574 24.2362L27.9462 25.2299ZM31.1271 24.4976C31.7402 23.9639 32.0666 23.602 32.2373 23.2083C32.3229 23.0109 32.3604 22.8263 32.3894 22.6562C32.4195 22.4797 32.4401 22.3234 32.488 22.1089L31.512 21.8911C31.4568 22.1386 31.4279 22.346 31.4036 22.4881C31.3783 22.6366 31.3566 22.7257 31.3199 22.8104C31.2459 22.981 31.0749 23.2173 30.4706 23.7433L31.1271 24.4976ZM32 22.5H35V21.5H32V22.5ZM34.5057 21.9247C34.3671 22.835 33.5202 23.3113 32.7548 23.3143L32.7587 24.3142C33.8411 24.3101 35.2579 23.6279 35.4943 22.0753L34.5057 21.9247ZM32.283 23.9743C32.3924 24.2979 32.5449 24.5564 32.7502 24.7497C32.9584 24.9457 33.1904 25.0459 33.4097 25.0993C33.6167 25.1496 33.8274 25.1607 33.9819 25.1704C34.1535 25.1811 34.2714 25.1905 34.3752 25.2172L34.6246 24.2489C34.4141 24.1946 34.202 24.1822 34.0442 24.1723C33.8693 24.1614 33.7512 24.1532 33.6461 24.1276C33.5533 24.105 33.4899 24.0726 33.4357 24.0216C33.3785 23.9678 33.3015 23.8647 33.2305 23.6542L32.283 23.9743ZM34.3529 25.2109C34.8982 25.3788 35.3944 25.5036 35.9097 25.3161C36.3866 25.1426 36.8027 24.7252 37.3232 24.1496L36.5814 23.4789C36.0292 24.0897 35.7723 24.302 35.5678 24.3764C35.4018 24.4368 35.2081 24.4278 34.647 24.2552L34.3529 25.2109ZM36.4735 23.9585C36.6348 24.4935 36.7073 24.9573 36.6774 25.4209C36.6476 25.8833 36.514 26.375 36.2244 26.9608L37.1208 27.404C37.4567 26.7246 37.6354 26.1044 37.6753 25.4852C37.7151 24.8673 37.6147 24.2796 37.431 23.67L36.4735 23.9585ZM36.2394 26.9327C35.9674 27.4045 35.744 27.8297 35.5481 28.1922C35.349 28.5605 35.1801 28.8605 35.0052 29.1131C34.6724 29.5937 34.3276 29.891 33.7305 30.072L34.0206 31.029C34.8728 30.7707 35.3914 30.312 35.8274 29.6824C36.0368 29.3798 36.2286 29.0362 36.4278 28.6677C36.6302 28.2933 36.8428 27.8883 37.1057 27.4321L36.2394 26.9327ZM33.8586 30.0508C33.3868 30.0668 33.1935 30.0429 33.0458 29.9673C32.9 29.8927 32.7237 29.7265 32.4269 29.2397L31.5731 29.7603C31.8864 30.2743 32.1832 30.6492 32.5903 30.8575C32.9955 31.0649 33.435 31.0658 33.8925 31.0502L33.8586 30.0508ZM32.1355 29.9813C33.3963 29.6263 34.0976 28.9442 34.0959 28.0999L33.0959 28.102C33.0962 28.2699 32.9615 28.7098 31.8645 29.0187L32.1355 29.9813ZM34.0948 28.0681C34.0567 27.4907 33.6506 26.9931 33.2701 26.6727C33.0682 26.5026 32.8446 26.3572 32.623 26.2522C32.4093 26.151 32.1609 26.07 31.9176 26.07V27.07C31.9541 27.07 32.0492 27.0869 32.1949 27.1559C32.3327 27.2212 32.4844 27.3183 32.626 27.4375C32.9324 27.6956 33.0857 27.9635 33.0969 28.1338L34.0948 28.0681ZM31.9176 26.07C31.1394 26.07 30.3407 26.5745 29.5787 27.4712L30.3408 28.1187C31.0318 27.3054 31.5771 27.07 31.9176 27.07V26.07ZM29.5408 27.522C29.2753 27.9295 29.0911 28.2938 28.9879 28.6946C28.885 29.0948 28.8716 29.498 28.9014 29.9699L29.8994 29.9068C29.8729 29.4877 29.8901 29.2014 29.9564 28.9438C30.0225 28.6868 30.1461 28.4249 30.3787 28.0679L29.5408 27.522ZM28.9127 30.0486C29.0403 30.6132 29.1805 31.0816 29.4222 31.5194C29.6659 31.9609 29.9963 32.3417 30.4659 32.7609L31.1318 32.0149C30.714 31.642 30.4692 31.3469 30.2976 31.0361C30.1239 30.7215 30.0086 30.3612 29.8881 29.8281L28.9127 30.0486ZM30.5156 32.7999C31.3435 33.3691 32.1299 33.4873 32.9927 33.4999L33.0073 32.5001C32.2454 32.4889 31.6829 32.3889 31.0821 31.9759L30.5156 32.7999ZM37.3603 31.3467C38.4553 30.2087 39.1673 29.2229 39.9436 27.7307L39.0564 27.2693C38.3234 28.6783 37.667 29.5857 36.6397 30.6533L37.3603 31.3467ZM39.9293 27.7563C40.739 26.3999 40.9556 25.5012 41.6059 24.0149L40.6898 23.614C39.9744 25.249 39.8411 25.953 39.0707 27.2437L39.9293 27.7563ZM41.6281 23.9534C42.3315 21.5221 42.5604 20.1321 42.4867 17.6756L41.4872 17.7056C41.5571 20.0387 41.3479 21.3237 40.6675 23.6755L41.6281 23.9534ZM42.4852 17.6495C42.3861 16.4467 42.2858 15.4618 42 14.5113C41.7107 13.549 41.2391 12.645 40.4279 11.5715L39.6301 12.1744C40.3862 13.1749 40.7942 13.974 41.0424 14.7993C41.2941 15.6364 41.389 16.5233 41.4886 17.7317L42.4852 17.6495ZM40.4178 11.5586C39.7897 10.7817 39.2221 10.2698 38.5369 9.88768C37.8638 9.51229 37.1033 9.27778 36.1292 9.01701L35.8706 9.98299C36.8424 10.2431 37.4954 10.4518 38.0499 10.7611C38.5923 11.0636 39.0664 11.4777 39.6402 12.1873L40.4178 11.5586ZM36.0914 9.00844C34.4561 8.70402 33.552 8.46886 31.7945 8.9154L32.0408 9.8846C33.5588 9.49889 34.259 9.68451 35.9084 9.99156L36.0914 9.00844ZM31.7762 8.92041C30.8825 9.18393 30.1566 9.43337 29.4293 9.82034C28.7013 10.2078 27.9919 10.7221 27.1118 11.4978L27.7731 12.248C28.6178 11.5035 29.2625 11.0419 29.8991 10.7031C30.5365 10.364 31.1858 10.1371 32.059 9.87959L31.7762 8.92041ZM27.9366 11.7968L27.4942 8.92389L26.5058 9.07611L26.9483 11.949L27.9366 11.7968ZM33.0443 33.498C34.0527 33.4084 34.7782 33.2527 35.4423 32.9069C36.0974 32.5658 36.654 32.0589 37.355 31.3521L36.645 30.6479C35.9473 31.3514 35.4851 31.7572 34.9805 32.02C34.4848 32.278 33.9096 32.4172 32.9557 32.502L33.0443 33.498ZM32.477 22.1497C32.747 21.2897 32.8615 20.568 32.8355 19.8327C32.8097 19.1039 32.6465 18.3887 32.397 17.5481L31.4383 17.8327C31.6796 18.6453 31.8148 19.2653 31.8361 19.8681C31.8572 20.4645 31.7675 21.0711 31.5229 21.8503L32.477 22.1497ZM35.4897 22.1009C35.8617 20.2953 36.2229 19.4876 36.5887 19.1182C36.8997 18.8042 37.2685 18.7544 38.0404 18.8018L38.1017 17.8037C37.3266 17.7561 36.5306 17.7558 35.8782 18.4145C35.2805 19.0179 34.8796 20.1063 34.5103 21.8991L35.4897 22.1009ZM37.3648 24.0968C37.7331 23.5591 38.0929 23.2946 38.5057 22.9934C38.932 22.6822 39.4113 22.3344 39.8821 21.6473L39.0571 21.0821C38.6887 21.6198 38.3289 21.8844 37.9162 22.1856C37.4898 22.4967 37.0105 22.8446 36.5398 23.5317L37.3648 24.0968ZM18.3252 20.321C21.7238 19.5331 23.3785 18.8414 25.7695 17.1826L25.1995 16.361C22.9324 17.9338 21.4006 18.5815 18.0993 19.3469L18.3252 20.321ZM21.8045 22.169C23.105 22.2835 23.8371 22.1847 25.0585 21.8466L24.7917 20.8828C23.6663 21.1943 23.0552 21.2753 21.8923 21.1728L21.8045 22.169ZM25.0872 21.8377C26.5896 21.3229 27.3068 20.7145 28.0313 20.1447L27.413 19.3587C26.6975 19.9215 26.0935 20.4358 24.763 20.8917L25.0872 21.8377ZM30.0869 21.1722C30.2462 20.4889 30.3331 19.888 30.2571 19.3156C30.1787 18.7263 29.9343 18.2112 29.5105 17.6835L28.7308 18.3097C29.0657 18.7266 29.2164 19.0755 29.2658 19.4474C29.3175 19.8364 29.2648 20.2942 29.113 20.9452L30.0869 21.1722ZM29.1015 21.0969C29.0952 21.0157 29.118 20.9727 29.1046 21.0103C29.0968 21.0323 29.0801 21.0714 29.05 21.1308C28.9904 21.2486 28.8995 21.4045 28.7837 21.593C28.6689 21.7797 28.5366 21.9873 28.3964 22.2076C28.2572 22.4264 28.1111 22.6566 27.973 22.8824C27.7055 23.3197 27.4376 23.7881 27.3162 24.1485C27.2845 24.2427 27.2567 24.3466 27.2449 24.4522C27.2337 24.5523 27.2319 24.6958 27.2923 24.8423C27.3619 25.0108 27.497 25.1408 27.6741 25.2023C27.8283 25.2558 27.9788 25.2454 28.0911 25.225L27.9126 24.2411C27.8866 24.2458 27.929 24.2322 28.0019 24.2575C28.0976 24.2907 28.1782 24.3674 28.2167 24.4609C28.2462 24.5323 28.237 24.5788 28.2387 24.5634C28.2398 24.5534 28.2453 24.5231 28.2639 24.4677C28.344 24.2298 28.5514 23.8531 28.826 23.4042C28.959 23.1869 29.1007 22.9636 29.2401 22.7443C29.3786 22.5267 29.5158 22.3115 29.6356 22.1166C29.7544 21.9234 29.8631 21.7387 29.9421 21.5826C29.9814 21.505 30.0189 21.4238 30.0468 21.3455C30.0691 21.2826 30.1091 21.1592 30.0985 21.0206L29.1015 21.0969ZM28.0313 20.1447C28.1872 20.0221 28.2661 19.9956 28.2924 19.9911C28.2971 19.9903 28.2987 19.9905 28.298 19.9904C28.2972 19.9904 28.2965 19.9902 28.2966 19.9903C28.2969 19.9903 28.3001 19.9912 28.3067 19.9944C28.3135 19.9978 28.3242 20.0038 28.3388 20.0145C28.4054 20.0628 28.508 20.1707 28.6538 20.3931C28.796 20.6099 28.9582 20.9023 29.1549 21.2866L30.045 20.8309C29.8438 20.4378 29.6622 20.1073 29.4901 19.8448C29.3217 19.5879 29.1396 19.36 28.9262 19.2052C28.6931 19.036 28.4212 18.9541 28.1223 19.0057C27.8533 19.0521 27.617 19.1982 27.413 19.3587L28.0313 20.1447Z" fill="black"/>
<path d="M21 16C21 14 24 14 24 16C24 18 21 18 21 16Z" fill="#D9D9D9" stroke="black"/>
<circle cx="22.5" cy="16.1001" r="0.5" fill="black"/>
</svg>